<svg width="255" height="196" viewBox="0 0 255 196" fill="none" xmlns="http://www.w3.org/2000/svg">
<path fill-rule="evenodd" clip-rule="evenodd" d="M206.707 0.512883C204.155 0.170973 201.517 1.76172e-05 198.964 1.7394e-05C180.075 1.57426e-05 162.972 9.65898 152.761 24.5321C145.103 23.3354 136.595 22.6516 127.575 22.6516C118.556 22.6516 110.047 23.3354 102.389 24.5321C93.7102 11.8814 80.0961 2.82077 63.8442 0.512871C61.2916 0.17096 58.6539 5.12768e-06 56.0161 4.89709e-06C28.2774 2.47209e-06 4.36757 20.8565 0.5386 48.5512C-2.01405 66.7579 4.62283 85.2211 17.9817 97.7008C19.8536 127.532 30.1493 165.314 67.4179 183.777C67.4179 183.777 67.503 183.777 67.503 183.862C86.2224 192.752 113.536 196 127.405 196C141.189 196 168.162 192.837 186.712 184.119C186.967 184.033 187.222 183.862 187.563 183.777C224.831 165.314 235.127 127.532 236.999 97.7008C246.529 88.8967 252.655 77.1008 254.442 64.1082C258.781 33.3363 237.339 4.78676 206.707 0.512883Z" fill="white"/>
<path fill-rule="evenodd" clip-rule="evenodd" d="M31.8511 84.8792C35.3397 84.7937 38.3178 87.529 38.4029 91.1191C39.2538 120.865 48.2731 151.124 76.5224 165.143C90.6471 171.895 114.387 175.229 127.49 175.229C140.594 175.229 164.333 171.895 178.458 165.143C206.622 151.21 215.727 120.78 216.578 91.1191C216.663 87.6145 219.641 84.7937 223.129 84.8792C226.618 84.9647 229.426 87.9564 229.341 91.461C228.49 122.66 218.79 159.416 184.074 176.597L183.989 176.597C167.482 184.546 141.7 187.965 127.49 187.965C113.281 187.965 87.4988 184.461 70.9917 176.597C36.2757 159.416 26.5756 122.746 25.7248 91.461C25.5546 87.9564 28.3625 84.9647 31.8511 84.8792Z" fill="#366AF3"/>
<path fill-rule="evenodd" clip-rule="evenodd" d="M8.45183 49.6625C12.1106 23.1644 36.4459 4.78674 62.7381 8.46228C89.0304 12.1378 107.409 36.5844 103.751 62.997C100.092 89.4095 75.7566 107.873 49.4644 104.197C23.1721 100.522 4.70794 76.075 8.45183 49.6625ZM60.9513 21.113C41.6362 18.4632 23.7677 31.9686 21.13 51.372C18.4071 70.7754 31.9362 88.7257 51.2512 91.3755C70.5662 94.0253 88.4348 80.5199 91.0725 61.1165C93.7953 41.7985 80.2663 23.8482 60.9513 21.113Z" fill="#366AF3"/>
<path fill-rule="evenodd" clip-rule="evenodd" d="M151.315 49.6625C154.974 23.2499 179.309 4.78675 205.601 8.46229C231.893 12.1378 250.273 36.5844 246.614 62.997C242.955 89.4095 218.62 107.873 192.327 104.197C165.95 100.436 147.571 76.075 151.315 49.6625ZM203.814 21.113C184.499 18.4632 166.631 31.9686 163.993 51.372C161.27 70.7754 174.714 88.6402 194.114 91.3755C213.429 94.0253 231.298 80.5199 233.936 61.1165C236.658 41.7985 223.129 23.8482 203.814 21.113Z" fill="#366AF3"/>
<path d="M46.231 56.3297C52.4425 56.3297 57.5478 51.201 57.5478 44.9612C57.5478 38.7213 52.4425 33.5927 46.231 33.5927C40.0196 33.5927 34.9143 38.7213 34.9143 44.9612C34.9143 51.201 40.0196 56.3297 46.231 56.3297Z" fill="#222222"/>
<path d="M49.6346 41.6276C49.6346 43.5081 48.103 45.0467 46.146 45.0467C44.274 45.0467 42.7424 43.5081 42.7424 41.5421C42.7424 39.6616 44.274 38.123 46.231 38.123C48.1881 38.123 49.7197 39.6616 49.6346 41.6276Z" fill="white"/>
<path d="M190.285 56.3297C196.497 56.3297 201.602 51.2011 201.602 44.9612C201.602 38.7213 196.497 33.5927 190.285 33.5927C184.074 33.5927 178.969 38.7213 178.969 44.9612C178.969 51.2011 184.074 56.3297 190.285 56.3297Z" fill="#222222"/>
<path d="M193.944 41.6276C193.944 43.5081 192.413 45.0467 190.456 45.0467C188.584 45.0467 187.052 43.5081 187.052 41.5421C187.052 39.6616 188.584 38.123 190.541 38.123C192.413 38.123 193.944 39.6616 193.944 41.6276Z" fill="white"/>
<path fill-rule="evenodd" clip-rule="evenodd" d="M161.185 115.908C157.867 114.711 155.144 116.42 153.187 119.669C153.187 119.669 151.145 123.515 148.592 125.567C145.103 128.644 138.722 132.319 127.575 132.747C116.429 132.405 110.047 128.729 106.558 125.566C104.006 123.515 101.964 119.669 101.964 119.669C100.007 116.42 97.2839 114.711 93.9654 115.908C90.647 117.104 88.9452 120.78 90.1364 124.113C90.1364 124.113 90.9022 126.165 92.0084 128.045C93.2847 130.097 95.1566 132.661 98.0496 135.225C103.921 140.44 113.28 145.312 127.575 145.654C141.87 145.312 151.23 140.525 157.101 135.225C159.994 132.661 161.866 130.097 163.142 128.045C164.248 126.165 165.014 124.113 165.014 124.113C166.205 120.78 164.504 117.104 161.185 115.908Z" fill="#366AF3"/>
</svg>
